# Converted from STL by stl_to_obj.py (no coordinate change)
# Vertices: 1002  Faces: 2000
v -48.128021 -82.051834 38.785492
v -48.705662 -82.750366 39.533588
v -48.934341 -82.231491 39.080700
v -46.799515 -82.409119 39.047390
v -47.561413 -82.719780 39.336700
v -50.150921 -81.105484 38.746029
v -50.789738 -81.640060 39.543335
v -51.141460 -81.168861 39.265118
v -49.011723 -81.415367 38.592457
v -49.655003 -81.986794 39.213814
v -48.071957 -80.988312 38.296799
v -47.482086 -81.035034 38.330532
v -46.419991 -80.949089 38.597282
v -46.261833 -82.390678 39.450039
v -51.081184 -80.282127 38.675411
v -52.094841 -80.227898 39.201054
v -49.894268 -80.191917 38.292755
v -45.628349 -81.183975 39.248520
v -45.473511 -79.655815 38.675583
v -51.935280 -79.423180 38.675720
v -52.709740 -79.144814 38.973862
v -51.145184 -78.984550 38.280136
v -50.161194 -79.281082 38.147480
v -48.841103 -79.134041 38.038815
v -47.523140 -79.556206 38.086040
v -46.531464 -79.573875 38.228123
v -44.843540 -79.820335 39.305611
v -52.768703 -77.826576 38.488602
v -53.701405 -77.979836 38.947083
v -47.246819 -78.231087 37.995609
v -46.145260 -78.153206 38.082943
v -45.554859 -78.587097 38.297340
v -44.502056 -78.536575 38.776459
v -43.970688 -78.652489 39.295845
v -51.433170 -77.231018 38.106945
v -52.591785 -76.660851 38.194286
v -50.588154 -77.150429 38.036129
v -49.366508 -77.332642 37.987087
v -44.599083 -77.585670 38.363930
v -43.054249 -76.989998 38.917805
v -42.708096 -77.478119 39.590824
v -55.338676 -76.152817 38.660542
v -56.024319 -76.738510 39.313580
v -56.471394 -76.134468 38.956825
v -54.135025 -76.572212 38.520935
v -55.054649 -77.234604 39.246220
v -48.101311 -76.094673 37.963661
v -45.779884 -76.234634 38.004559
v -44.656185 -76.620636 38.181110
v -43.691975 -76.292915 38.424133
v -42.628967 -76.864662 39.241692
v -56.127716 -75.338562 38.544155
v -57.274422 -75.350410 39.054764
v -54.789948 -75.294632 38.264030
v -53.404354 -75.519699 38.152168
v -52.049435 -75.593002 38.042999
v -50.241138 -75.601578 37.982914
v -44.725510 -75.137466 38.121086
v -42.999893 -75.331200 38.762199
v -56.898628 -74.598206 38.674240
v -57.670120 -74.433434 39.163620
v -56.190723 -73.969032 38.300907
v -55.603630 -73.996941 38.176647
v -53.965443 -74.526558 38.079586
v -52.162205 -74.388809 37.998447
v -50.128716 -74.043816 37.974747
v -47.976780 -73.904251 37.997498
v -46.075054 -73.998077 38.057198
v -44.038368 -74.157021 38.345505
v -42.378429 -74.796463 39.435932
v -57.156914 -73.576080 38.723343
v -57.837574 -73.496384 39.242641
v -54.396446 -73.047371 38.024639
v -44.861771 -73.744270 38.228199
v -43.243347 -73.669983 38.834103
v -57.434734 -72.435196 39.066593
v -58.179489 -72.922012 39.686317
v -56.468670 -72.624748 38.474281
v -55.537579 -72.594360 38.193436
v -52.269802 -71.839722 37.990215
v -53.828934 -72.051682 38.020546
v -50.295647 -72.109856 38.003983
v -48.218246 -72.618980 38.053009
v -46.825558 -72.671471 38.160038
v -45.241104 -72.956718 38.297039
v -44.033928 -72.754875 38.706066
v -43.039879 -72.576416 39.279755
v -42.620472 -72.915901 39.482338
v -57.091679 -71.279587 39.486282
v -56.613949 -71.700584 38.800690
v -55.631397 -71.648613 38.361725
v -54.217308 -71.172195 38.121368
v -49.157162 -71.679001 38.068142
v -47.582073 -71.752457 38.209217
v -46.084930 -71.591263 38.537407
v -44.935020 -71.914597 38.703796
v -44.108219 -71.478386 39.229084
v -43.348392 -71.779976 39.370834
v -56.306213 -70.665390 39.042496
v -55.570057 -70.556305 38.662724
v -54.219067 -70.172310 38.315010
v -52.236755 -70.432388 38.054234
v -50.242336 -70.682877 38.098969
v -48.854794 -70.785500 38.211845
v -48.060898 -70.938484 38.296375
v -47.031376 -70.743355 38.602444
v -46.017044 -70.358322 39.149338
v -45.185810 -70.641060 39.209675
v -54.724075 -68.906387 39.077740
v -52.318039 -69.558014 38.154633
v -50.843929 -69.705917 38.202019
v -49.349770 -69.954117 38.318230
v -48.023670 -69.873550 38.667175
v -46.825050 -69.685951 39.158039
v -53.926094 -68.807365 38.719868
v -52.868233 -68.795914 38.409077
v -52.162003 -68.361649 38.454552
v -51.103626 -68.930283 38.341232
v -49.832684 -68.783287 38.672371
v -48.112778 -68.911629 39.186123
v -47.357483 -69.099648 39.416527
v -53.363415 -67.549652 39.166088
v -53.013103 -67.936005 38.817669
v -51.104946 -67.928139 38.765884
v -50.218391 -67.638397 39.247044
v -49.022213 -68.145340 39.408367
v -52.074165 -66.904648 39.293488
v -51.386539 -66.779984 39.443611
v -47.913944 -83.206268 40.065361
v -48.504833 -83.305611 40.458496
v -46.772831 -83.078690 40.072887
v -45.897076 -82.603432 40.207939
v -49.563225 -82.643959 40.132420
v -51.323090 -81.656441 40.249458
v -45.502243 -82.099373 40.162586
v -52.171261 -80.787819 39.955444
v -45.140327 -81.169540 39.930538
v -53.199398 -79.376549 39.637856
v -54.210136 -78.228806 39.506916
v -54.017258 -78.937881 40.174500
v -44.032120 -79.477798 40.072540
v -54.714611 -78.483856 40.445831
v -55.717003 -77.542740 40.053955
v -56.811752 -76.839554 40.032547
v -57.489471 -76.096024 39.668690
v -42.151520 -76.738327 40.260075
v -41.995937 -75.770844 40.206341
v -57.929295 -75.358780 39.767090
v -58.413712 -74.038849 39.927559
v -41.921165 -74.488846 40.296555
v -42.190193 -73.087418 40.180546
v -57.970261 -71.978943 40.095985
v -57.541439 -71.120804 40.350426
v -42.712849 -71.871483 40.033443
v -56.457104 -70.246239 39.661369
v -44.277508 -70.404213 39.988338
v -45.890823 -69.528824 39.900810
v -54.956406 -68.373833 39.729939
v -47.803066 -68.345947 39.962814
v -47.212536 -68.526390 40.096340
v -54.136341 -67.419487 39.887859
v -49.694851 -67.220901 40.038177
v -53.067921 -66.599815 39.940685
v -50.733742 -66.527122 40.052731
v -52.491516 -66.203789 40.305122
v -51.409470 -66.041183 40.531940
v -47.659637 -83.715164 41.035362
v -46.935329 -83.665291 40.807884
v -46.170006 -83.532806 41.328117
v -45.505836 -82.969955 41.369911
v -49.665745 -83.002640 41.335754
v -51.143162 -82.223022 41.845215
v -44.965836 -81.793182 40.957329
v -43.823097 -79.835342 40.850521
v -53.369808 -79.886360 40.687126
v -42.657398 -78.472931 40.997845
v -55.222279 -78.434059 41.141026
v -57.417431 -77.101860 41.152157
v -57.670773 -76.284927 40.223698
v -58.193748 -76.561394 41.295803
v -41.951008 -77.620842 41.710629
v -58.606270 -75.953323 41.074745
v -58.765907 -75.102669 40.710659
v -59.121883 -74.570381 41.088150
v -59.453133 -73.564339 41.493546
v -58.566425 -72.834595 40.411301
v -59.645626 -72.713608 42.207790
v -41.729443 -73.077187 41.351112
v -42.099785 -71.709908 41.313744
v -42.842392 -70.707794 40.890450
v -42.408360 -70.968964 41.332233
v -56.927925 -69.737808 41.281483
v -44.435776 -69.601929 40.782009
v -43.298950 -70.187035 41.171867
v -55.175941 -67.907265 40.635448
v -56.034939 -67.832230 42.174904
v -45.618553 -68.948021 40.838860
v -48.218002 -67.677048 40.631512
v -47.051643 -68.095764 40.992413
v -53.729202 -66.476578 40.733070
v -49.594646 -66.699783 40.949150
v -47.437069 -67.534142 41.769382
v -52.848988 -65.695091 41.177986
v -51.929619 -65.571953 41.086414
v -52.696232 -65.068802 42.431305
v -48.387749 -83.971962 42.772629
v -49.179153 -83.584671 42.450836
v -47.466644 -84.124153 42.569714
v -46.674843 -84.052368 42.450657
v -44.073856 -80.986443 41.989517
v -52.983631 -80.779411 41.850582
v -54.340115 -79.768288 42.660931
v -43.179008 -79.719566 41.981861
v -42.259609 -78.589584 42.264553
v -57.366009 -77.483765 41.907036
v -41.611980 -76.461815 41.714939
v -59.091091 -75.641907 41.684204
v -41.526451 -75.471680 41.648140
v -59.637939 -75.133308 42.049774
v -41.121082 -74.211174 43.047749
v -60.218456 -74.416191 42.863976
v -60.082024 -73.520515 42.564739
v -59.122959 -71.932968 42.052471
v -58.135281 -70.768860 41.986221
v -43.250137 -69.377296 42.515324
v -57.008549 -69.190468 42.226887
v -44.927402 -68.385307 42.372871
v -55.297749 -66.900993 42.195969
v -49.456253 -66.324486 41.881420
v -48.215664 -66.805923 42.576481
v -54.327686 -65.841309 42.455570
v -50.737247 -65.627968 41.658264
v -51.509949 -65.232239 42.115608
v -50.568214 -65.324852 42.728432
v -45.565529 -83.421837 42.269196
v -46.009338 -83.856392 42.788433
v -44.421650 -82.616982 43.893539
v -52.932964 -81.505020 44.065762
v -43.848175 -81.381973 43.347347
v -42.821804 -79.863815 43.399521
v -58.317951 -77.461838 43.471100
v -55.880970 -78.776604 42.915970
v -55.177475 -79.391617 43.412025
v -41.367561 -77.416832 43.029205
v -41.995285 -78.459480 42.932762
v -59.101231 -76.704559 43.290646
v -58.649261 -76.664047 42.387234
v -41.172901 -76.176155 42.984711
v -59.459473 -76.103073 42.892059
v -41.100155 -75.117355 43.061611
v -41.274315 -72.736839 43.098427
v -41.687267 -71.636322 42.764771
v -42.072952 -70.619087 42.956032
v -57.504116 -69.513428 42.536076
v -42.628262 -69.545807 43.314777
v -44.136791 -68.414169 43.102695
v -47.346607 -67.095901 42.891426
v -49.273037 -66.058586 43.064434
v -55.894463 -66.739021 43.080658
v -53.789349 -65.338150 42.671494
v -53.014675 -64.477989 43.248112
v -53.579041 -64.416931 43.666283
v -52.010036 -63.946274 43.959057
v -51.477566 -64.769264 43.190842
v -45.154499 -83.441063 43.904526
v -50.316284 -83.344147 44.987000
v -44.600193 -83.002007 44.216904
v -51.742859 -82.325531 43.975758
v -43.493481 -81.413635 45.002239
v -42.375313 -79.446770 44.365719
v -55.851475 -79.191383 44.343628
v -58.132187 -77.786736 44.399265
v -41.382210 -77.680161 43.497906
v -41.018375 -76.566238 44.402916
v -59.954056 -76.036140 44.149887
v -60.246342 -75.317566 43.624660
v -40.913612 -75.276604 44.045227
v -60.695477 -74.221291 43.557529
v -61.046715 -74.645905 44.662453
v -40.932800 -73.815620 44.124981
v -60.467731 -72.766098 43.343437
v -60.961311 -73.555000 44.006863
v -60.987789 -72.523026 44.059788
v -41.017036 -72.416580 44.689457
v -60.400375 -71.641838 43.578999
v -61.124229 -70.977867 44.543926
v -59.683884 -71.636658 42.929237
v -60.505611 -70.468552 44.081390
v -59.642811 -70.662102 43.332199
v -58.802147 -70.548477 42.811352
v -41.532051 -70.533234 44.812134
v -59.752480 -69.120453 44.316982
v -59.704403 -69.795998 43.800594
v -58.601788 -69.414085 43.273003
v -41.950825 -69.904984 44.553078
v -58.268845 -68.265411 43.746361
v -43.182232 -68.691391 44.007355
v -58.131298 -67.389473 44.422886
v -56.944340 -67.869919 43.064384
v -45.628727 -67.302483 44.025833
v -43.749989 -67.720787 45.257832
v -57.299274 -67.028999 44.014744
v -48.919655 -66.085220 43.932766
v -48.051960 -66.314140 45.092587
v -47.337341 -66.748329 44.127682
v -55.323338 -65.750252 43.672546
v -51.562847 -64.218231 43.912079
v -50.577122 -64.891228 44.101673
v -52.571804 -63.672001 44.313362
v -53.194126 -63.610531 44.742855
v -48.892208 -84.187897 46.259068
v -47.812153 -84.434280 45.639851
v -46.906895 -84.399429 45.054352
v -45.844536 -84.133698 45.341660
v -45.098755 -83.713326 45.615040
v -43.939049 -82.354919 45.813084
v -52.972187 -81.852997 45.156910
v -51.664631 -82.637100 45.039268
v -53.822407 -81.537643 46.112972
v -54.812920 -80.116730 44.828869
v -42.400032 -79.649246 45.813869
v -41.482872 -78.012856 44.723995
v -41.200752 -77.267876 45.054192
v -59.933510 -76.375267 45.082096
v -40.856533 -75.380127 45.240311
v -40.806725 -74.674683 45.325138
v -61.629375 -73.132988 45.139351
v -40.823128 -73.172005 45.439224
v -61.577560 -72.056030 45.033672
v -61.376331 -71.143585 44.938271
v -41.267067 -71.100075 45.037449
v -60.779724 -69.818825 44.946957
v -60.298336 -68.913315 45.274822
v -42.459015 -68.538277 46.121021
v -44.504486 -67.310982 45.263962
v -57.905182 -66.383568 45.542995
v -47.413612 -66.541489 45.201347
v -45.969364 -66.844505 45.538311
v -56.489216 -65.660149 45.033142
v -49.824158 -65.287750 44.768589
v -48.830177 -65.840393 45.707882
v -54.250214 -63.975483 45.115318
v -50.327988 -64.746002 45.191765
v -51.321259 -63.779469 45.315998
v -52.841587 -63.236588 45.441734
v -51.842148 -63.203976 46.111858
v -47.120720 -84.647995 46.124092
v -46.642269 -84.623428 46.003880
v -46.050533 -84.532883 47.268311
v -50.715069 -83.462250 46.382221
v -44.535446 -83.203911 46.058697
v -52.813560 -82.378708 46.411594
v -55.702686 -79.983910 47.119873
v -56.293716 -79.318130 46.614307
v -56.795921 -78.818237 45.831055
v -41.704227 -78.277664 46.326408
v -58.904354 -77.516891 46.586960
v -59.599514 -76.835640 45.685169
v -40.999195 -75.885330 46.274231
v -61.086113 -75.137329 45.321026
v -61.168236 -75.538628 46.282928
v -61.621643 -75.028687 46.612034
v -61.829689 -74.422691 46.220085
v -61.837399 -73.881866 45.807545
v -40.779537 -73.705597 46.428841
v -62.044308 -72.781052 46.135410
v -62.019123 -71.786270 46.238087
v -40.932095 -71.851357 46.090794
v -61.944336 -70.394615 46.893536
v -41.121708 -70.929596 46.266258
v -61.301136 -69.805145 45.893993
v -41.371719 -69.923729 47.031540
v -59.110298 -66.923172 46.362022
v -47.262039 -66.464142 46.909317
v -46.034031 -66.712769 46.625645
v -43.476463 -67.633720 46.156044
v -57.012550 -64.755051 46.850132
v -49.720387 -65.071014 46.238979
v -48.744865 -65.803757 46.884457
v -53.967720 -63.542011 45.519047
v -53.566551 -62.698410 46.584366
v -52.987984 -62.633125 46.363396
v -52.277580 -62.790764 46.386692
v -46.847160 -84.763565 47.629757
v -48.454601 -84.521446 47.532269
v -45.565296 -84.223221 47.241642
v -45.059525 -83.772499 47.720505
v -52.591583 -82.929588 47.656628
v -50.995403 -83.787102 48.062115
v -44.206024 -82.794685 47.384575
v -53.783840 -82.375252 48.529678
v -42.114029 -79.154282 47.018822
v -57.145779 -78.853134 47.495258
v -60.237320 -76.688393 47.336700
v -41.332928 -76.704544 47.406826
v -40.872055 -74.466164 47.429279
v -62.154224 -73.593102 46.858845
v -62.262386 -72.677933 47.009922
v -40.793163 -72.666008 46.989273
v -62.351341 -71.674599 47.521454
v -40.875549 -71.722343 47.088631
v -62.303013 -70.919708 47.728809
v -41.051880 -70.746017 47.335632
v -41.689968 -69.163933 47.527012
v -61.290237 -69.113525 46.788387
v -60.598774 -68.018822 47.041203
v -61.362114 -68.363174 47.929592
v -42.532307 -68.123672 47.803528
v -47.959621 -66.242897 46.702309
v -46.265881 -66.652122 47.804382
v -44.653145 -67.001472 46.905098
v -43.812588 -67.270691 47.338715
v -58.471630 -65.530991 47.651890
v -49.553036 -65.074692 47.384056
v -54.483456 -63.043499 46.876820
v -51.289494 -63.343361 47.034222
v -50.803329 -63.638817 48.111683
v -54.423706 -62.508144 48.168594
v -53.463913 -62.345421 47.961540
v -52.584057 -62.458946 47.360748
v -47.692345 -84.799110 48.434792
v -49.866508 -84.183716 48.145405
v -54.860157 -81.470230 48.521233
v -42.868805 -80.436302 47.989063
v -43.813900 -81.972305 48.633514
v -56.242741 -79.963272 48.722797
v -59.507397 -77.401924 48.432636
v -41.684685 -77.612175 48.319454
v -60.647476 -76.481667 48.647018
v -61.311195 -75.707352 48.012703
v -41.072498 -75.257042 48.120907
v -61.742668 -75.133331 48.350090
v -62.035271 -74.394890 47.528255
v -62.303837 -73.571815 48.039120
v -40.816631 -73.485199 47.895580
v -62.426216 -72.670380 48.197239
v -40.791245 -72.572792 47.930725
v -40.836617 -71.593239 48.618771
v -40.914993 -70.955910 48.615566
v -62.264259 -69.999077 48.325657
v -41.166294 -70.034393 48.746983
v -61.811749 -69.151207 47.899330
v -41.651299 -69.039955 49.048992
v -43.134075 -67.611534 47.992203
v -48.041157 -66.280014 48.021366
v -47.404228 -66.609329 48.896313
v -44.754017 -66.909096 48.355824
v -49.113010 -65.523026 47.994705
v -48.542526 -66.066246 48.459316
v -56.999901 -63.605808 48.963837
v -51.885563 -62.714306 48.045666
v -47.526833 -84.810020 49.338791
v -46.706619 -84.746971 49.272259
v -50.389618 -84.190048 49.341057
v -51.103043 -83.917656 49.061218
v -49.220043 -84.433693 48.850178
v -45.741371 -84.167015 48.929768
v -44.760532 -83.297791 48.680607
v -52.464775 -83.428078 49.666561
v -54.581871 -82.036613 49.606628
v -42.642586 -79.597122 50.221687
v -42.170673 -78.779167 49.539898
v -58.422558 -78.494431 50.227551
v -41.878994 -77.646507 50.517281
v -41.545254 -76.681953 49.271976
v -62.107937 -74.404610 48.737854
v -41.000870 -73.724350 49.409222
v -40.827599 -72.934998 48.676220
v -62.511055 -71.703926 49.009590
v -62.513504 -70.712486 49.113541
v -62.655193 -69.724808 49.905266
v -62.485329 -69.250351 49.521915
v -62.149509 -68.848366 49.032661
v -60.562962 -66.952423 48.929577
v -42.581738 -68.081322 49.700642
v -48.024803 -66.555618 49.303894
v -46.254421 -66.841064 49.558697
v -45.013191 -66.952370 49.769276
v -43.953167 -67.186295 48.771225
v -58.152744 -64.365959 49.409786
v -49.104950 -65.656639 48.947533
v -50.240952 -64.295845 49.220787
v -55.385090 -62.525913 49.245228
v -51.486717 -63.056271 50.126995
v -54.680531 -62.188057 49.831371
v -53.473534 -62.149879 49.679344
v -52.760517 -62.328636 48.954403
v -50.824821 -84.222260 51.035126
v -49.515236 -84.428993 50.074261
v -48.457218 -84.577553 49.759304
v -46.362320 -84.123810 50.662872
v -45.648552 -83.598991 51.067822
v -53.453617 -82.965858 50.108261
v -44.404686 -82.591751 49.506805
v -53.955132 -82.707397 50.470203
v -43.644855 -81.231384 49.967014
v -57.085228 -79.429184 49.643333
v -60.977367 -76.407990 51.087631
v -41.446011 -75.581650 50.173096
v -61.792831 -75.236732 51.832886
v -62.408775 -73.458702 51.388985
v -62.527275 -72.572388 50.520298
v -40.921730 -71.940651 49.805927
v -62.575645 -71.678123 50.026001
v -41.071545 -70.611809 49.943966
v -62.734310 -70.198837 50.854977
v -41.439037 -69.617699 50.682678
v -62.120800 -68.333946 50.236000
v -41.796394 -68.930687 50.048004
v -61.247242 -67.241638 49.897797
v -43.333740 -67.573166 49.966240
v -48.746391 -66.287163 49.870762
v -48.106174 -66.970367 50.389973
v -47.264236 -66.971725 50.034790
v -43.946148 -67.325607 50.359871
v -59.576027 -65.533485 50.110462
v -49.348152 -65.657600 50.141163
v -58.430328 -64.241524 50.432636
v -50.223866 -64.505562 50.531849
v -57.594379 -63.515858 50.406868
v -50.920677 -63.628277 50.312637
v -56.520226 -62.964409 49.903725
v -56.125835 -62.509113 51.040222
v -52.048309 -62.678749 49.987465
v -54.284267 -62.083454 50.232250
v -52.929905 -62.310352 50.361012
v -51.859074 -83.875511 50.854862
v -49.957329 -84.424507 51.795719
v -48.522781 -84.506950 50.855217
v -47.348221 -84.476212 50.524250
v -53.316467 -83.172485 51.157463
v -45.232712 -82.783707 51.981136
v -54.732960 -82.174797 51.117027
v -55.595100 -81.278419 50.751686
v -56.697308 -80.429565 51.894001
v -56.846428 -80.074829 50.999813
v -58.227818 -78.791603 50.915127
v -42.157494 -78.165390 51.362755
v -59.719501 -77.683968 51.623989
v -60.372517 -77.236351 52.600616
v -41.800549 -76.334213 52.308365
v -61.367207 -75.950157 51.716286
v -41.509251 -74.929527 51.254570
v -62.151924 -74.378929 51.562782
v -41.140106 -72.563873 50.748173
v -41.152290 -71.294418 50.737484
v -41.382317 -70.113853 50.995918
v -62.729733 -70.052689 51.714680
v -62.728760 -69.606415 51.583828
v -62.565563 -69.016762 51.019592
v -62.386272 -68.655556 51.100349
v -42.464355 -68.535889 51.285908
v -61.115677 -66.798241 50.934902
v -61.957020 -67.932663 51.235874
v -48.494259 -66.956947 50.824409
v -48.130379 -67.658310 51.649849
v -47.537830 -67.508362 51.195194
v -43.242710 -68.026176 51.764374
v -49.057266 -66.428474 51.008202
v -46.870403 -67.754021 51.783199
v -45.814796 -67.211281 51.013142
v -59.396553 -65.088730 51.171402
v -58.056793 -63.675350 51.866322
v -56.748688 -62.864014 50.939442
v -55.389061 -62.244869 51.493050
v -54.564949 -62.120987 51.290642
v -53.712151 -62.148911 51.056229
v -51.260921 -84.080635 52.263157
v -51.976368 -83.841927 52.104591
v -48.689392 -84.449776 52.588451
v -47.610321 -84.377686 51.688423
v -46.044643 -83.574478 52.253433
v -53.193165 -83.268318 52.136757
v -54.407330 -82.539574 52.031017
v -56.450291 -80.845825 53.232929
v -43.199230 -79.831841 52.025856
v -44.433807 -81.259544 52.808540
v -42.683125 -78.738968 52.682339
v -59.360039 -78.283058 53.413933
v -41.982464 -77.255989 52.193386
v -41.877106 -76.041603 53.023136
v -41.626804 -73.877808 52.122459
v -62.506187 -72.517998 52.792233
v -41.478748 -72.238213 51.750317
v -62.618504 -71.176155 52.469620
v -41.584919 -70.801163 51.780384
v -41.995152 -69.627449 51.827179
v -62.387508 -68.854126 52.020645
v -42.455238 -68.843246 51.887791
v -61.968739 -68.011406 52.449951
v -48.807278 -67.402176 52.107208
v -47.532913 -68.179176 52.177254
v -44.105652 -67.513443 51.473347
v -43.907284 -67.809624 52.146957
v -61.277622 -66.925667 51.995613
v -49.214890 -66.814262 52.157806
v -45.474289 -67.733498 52.685246
v -44.920803 -67.398605 51.695320
v -60.063522 -65.665840 51.971409
v -49.877861 -65.606377 52.216484
v -59.224220 -64.857689 52.261353
v -50.672474 -64.695351 53.487759
v -51.985104 -63.480938 53.385963
v -51.300198 -64.138855 53.786896
v -57.135586 -63.050499 51.921505
v -55.800362 -62.442196 52.634766
v -52.444126 -62.808098 51.984089
v -53.029423 -62.523708 52.078144
v -51.396347 -83.925140 53.126915
v -50.752522 -84.070793 53.309124
v -49.603489 -84.318001 53.241768
v -47.927605 -84.263069 53.959877
v -46.954224 -84.028275 53.231796
v -46.319603 -83.630692 53.312363
v -53.541218 -82.947342 53.968853
v -54.035854 -82.767479 53.151688
v -52.445366 -83.512924 53.073006
v -45.830608 -82.954514 53.994709
v -55.512955 -81.642967 54.123466
v -57.556675 -79.854683 53.178558
v -42.445866 -78.029655 53.120354
v -60.862961 -76.752731 53.030212
v -61.413780 -75.878288 53.739632
v -42.034023 -75.303169 53.744366
v -41.990517 -73.494186 53.124535
v -42.182106 -71.759293 53.031178
v -42.451153 -70.147629 52.839169
v -62.526711 -69.943886 52.824596
v -62.497204 -70.881866 53.769058
v -42.751488 -69.208801 52.765629
v -62.243187 -68.889435 53.128731
v -48.303116 -68.317131 52.765778
v -47.366039 -69.065544 53.644970
v -46.818371 -68.702278 53.122459
v -42.938713 -68.843597 52.739563
v -61.791122 -68.009308 53.796654
v -48.886768 -68.444542 53.588604
v -43.717724 -68.253883 52.613251
v -61.449047 -67.355789 53.149326
v -60.859348 -66.698753 53.509480
v -49.348869 -67.986931 53.792976
v -49.629345 -66.657104 53.071907
v -60.005989 -65.699768 52.781181
v -58.734909 -64.470757 53.275623
v -57.660622 -63.490055 53.410793
v -56.598759 -62.887749 52.979061
v -52.649155 -63.256638 54.076073
v -55.042698 -62.369808 52.933151
v -54.133743 -62.393818 52.892216
v -48.676285 -84.255295 54.187759
v -52.914749 -83.069565 54.517506
v -51.505951 -83.610809 54.090088
v -54.370110 -82.332649 54.685661
v -45.451881 -82.263786 54.476856
v -44.554546 -80.740852 54.398499
v -58.510906 -79.155533 54.319008
v -43.207558 -78.882759 54.135727
v -59.487858 -78.243111 54.830540
v -60.480667 -77.208244 53.925125
v -43.015575 -78.138641 54.781902
v -61.146587 -76.333839 53.921112
v -42.361595 -77.088600 54.096043
v -61.871067 -74.758926 54.334232
v -62.173260 -73.680435 54.609680
v -42.452789 -72.665855 53.656162
v -42.833553 -73.824364 54.873264
v -43.062256 -71.919365 54.085968
v -62.398075 -72.257591 54.478409
v -43.459671 -70.520683 53.830154
v -43.502071 -71.574814 54.366211
v -44.169800 -70.607101 54.325027
v -62.309731 -69.792854 53.994865
v -46.602581 -69.626091 54.350239
v -46.256004 -69.067642 53.660904
v -48.191761 -69.143517 54.126179
v -45.769703 -70.132057 54.689350
v -45.240833 -69.341431 53.870281
v -44.932503 -70.126900 54.389809
v -44.248051 -69.743225 53.869076
v -43.697815 -69.233612 53.384781
v -61.923054 -68.830208 54.527809
v -49.411079 -68.718994 55.101429
v -48.748604 -69.032433 54.457355
v -45.280270 -68.157745 53.037640
v -44.539505 -68.439270 53.144161
v -61.372162 -67.810982 54.388954
v -59.791054 -66.452850 55.556953
v -60.006065 -65.929146 53.692551
v -58.628864 -64.788765 54.682438
v -50.167149 -66.340210 54.567184
v -50.499340 -65.399078 54.618340
v -57.578594 -63.791180 54.736687
v -55.598911 -62.810566 54.027317
v -54.551022 -62.727074 54.070465
v -53.540562 -62.787537 53.739742
v -49.454502 -83.950500 54.965424
v -47.114964 -83.801521 55.004704
v -46.372242 -83.251450 55.057510
v -52.588318 -82.956482 55.208324
v -45.716755 -82.392410 55.165730
v -55.569054 -81.520775 55.300289
v -53.526150 -82.509148 55.548088
v -57.591831 -79.914658 55.538319
v -58.829922 -78.806343 55.454224
v -43.781311 -79.065018 55.438396
v -59.738197 -77.936607 55.304779
v -60.794308 -76.731323 55.127533
v -42.819679 -77.339386 55.130379
v -42.439331 -76.379364 54.745548
v -42.458946 -74.681938 54.721119
v -62.291676 -71.848396 55.189049
v -62.182236 -70.981064 55.422672
v -44.607128 -71.775383 55.364082
v -43.910244 -72.125404 55.040771
v -61.934368 -69.762978 55.412735
v -46.951107 -70.079453 55.213528
v -49.821369 -67.967743 54.929562
v -60.836037 -67.836761 55.671421
v -58.613831 -65.299454 55.864712
v -51.016113 -64.802925 54.692844
v -51.835896 -63.987904 54.691784
v -56.635288 -63.510807 55.814110
v -55.010952 -63.172295 55.558586
v -53.972500 -63.082447 55.042412
v -53.129513 -63.551968 55.645992
v -48.615643 -83.865181 55.802082
v -47.721836 -83.789597 55.908623
v -47.386059 -83.575760 56.175411
v -52.550945 -82.535744 56.276665
v -50.013908 -83.358238 56.154415
v -46.648140 -83.098579 56.309139
v -46.305286 -82.680946 56.438419
v -54.608711 -81.800438 56.890511
v -55.258541 -81.628372 56.025318
v -45.582958 -81.727966 55.901684
v -44.290794 -78.893250 57.062908
v -45.452900 -80.662407 57.085812
v -57.883621 -79.509254 56.131325
v -43.616325 -78.244537 56.254292
v -43.214363 -77.479805 55.960934
v -60.055470 -77.270409 56.540100
v -43.133434 -76.623657 56.110146
v -60.853062 -76.229439 56.834682
v -61.594990 -75.185600 56.212139
v -42.834270 -75.694740 55.481125
v -61.885838 -74.596130 55.702572
v -43.396725 -74.792076 55.949989
v -62.072956 -73.503418 55.913425
v -44.188313 -73.735741 56.218597
v -45.241974 -71.890991 55.913414
v -46.278214 -71.326210 56.427608
v -45.478718 -72.435234 56.654381
v -46.143288 -70.882202 55.735775
v -47.313713 -70.737419 56.685143
v -45.275604 -71.057434 55.313156
v -61.913292 -70.430717 55.920086
v -47.810314 -70.124428 56.076004
v -49.069530 -69.479111 56.194016
v -60.790215 -69.214134 57.249275
v -50.205135 -68.840965 57.056282
v -49.679756 -69.534286 57.333992
v -59.836231 -67.492439 56.962479
v -58.455257 -65.777390 56.986675
v -50.730042 -65.717621 55.318764
v -50.975456 -66.690392 56.813061
v -51.592472 -65.457893 57.025883
v -51.530346 -64.712921 55.545719
v -52.069847 -64.692444 56.645569
v -57.498852 -64.275330 56.110317
v -52.411121 -63.971420 55.649593
v -52.828339 -64.082161 56.454411
v -56.115852 -63.449585 56.052475
v -50.151073 -82.813599 57.298428
v -51.498920 -82.508850 56.911144
v -48.484085 -83.366020 56.731636
v -54.045120 -81.859238 57.202095
v -55.650455 -80.962891 57.373207
v -56.653717 -80.394096 56.943375
v -58.383060 -78.816673 56.837315
v -44.049656 -77.734985 57.437664
v -43.538166 -77.089775 56.856373
v -61.494610 -75.223480 56.973953
v -44.103966 -75.340637 57.416176
v -44.009117 -76.473076 57.562733
v -61.748692 -74.330223 57.475803
v -44.607986 -74.595642 57.831474
v -61.844902 -73.120544 57.002098
v -44.917786 -73.965965 57.752384
v -61.377609 -72.723854 58.092148
v -46.839619 -71.522797 57.394844
v -48.616211 -70.337509 57.454708
v -50.465511 -68.132812 56.684784
v -59.708420 -68.207207 58.000793
v -57.692204 -64.937119 57.178509
v -56.913673 -64.599983 57.546387
v -55.655075 -63.932236 57.074146
v -55.281658 -63.533905 56.435570
v -54.665070 -63.911613 57.076305
v -53.938774 -63.575752 56.350697
v -53.703602 -63.962410 56.885101
v -52.965111 -64.820305 57.718781
v -49.533001 -82.549538 57.800751
v -48.555878 -82.826302 57.567524
v -47.657169 -82.920547 57.387207
v -46.756302 -82.518745 57.410374
v -53.288948 -81.680458 57.849018
v -52.229462 -81.936111 57.617142
v -51.342930 -82.047325 57.643253
v -50.354378 -82.227379 57.768681
v -45.986252 -80.797745 57.803394
v -54.503567 -81.183731 58.105331
v -55.543934 -80.671539 58.098984
v -51.748600 -81.539818 58.222198
v -56.593903 -80.088326 57.835724
v -45.068951 -79.623993 57.639309
v -57.989014 -78.722710 57.925713
v -44.756596 -78.543823 58.117950
v -58.894226 -77.854637 58.108852
v -59.795979 -76.876404 58.366253
v -60.697716 -75.900650 58.299828
v -61.488464 -74.640274 57.926590
v -45.794704 -73.004486 57.869427
v -47.903553 -71.680511 58.756653
v -47.295483 -72.347801 58.909756
v -61.116314 -71.488525 58.065529
v -50.920288 -68.219681 57.607182
v -50.333500 -69.306801 57.859283
v -51.524593 -66.506523 57.578793
v -58.949596 -67.103905 57.726582
v -58.161591 -66.274948 57.822308
v -52.208019 -65.642151 57.882401
v -52.688602 -65.187378 57.921707
v -55.547134 -64.321487 57.651291
v -53.994339 -64.500420 57.661324
v -48.658340 -82.154465 58.152924
v -47.344898 -82.456787 57.835140
v -50.622890 -81.339684 58.449497
v -49.423519 -81.607727 58.391964
v -48.538231 -81.132629 58.654270
v -47.667095 -81.587021 58.369270
v -46.942513 -81.820709 58.011269
v -54.321854 -80.518555 59.381714
v -53.579163 -80.624222 59.571770
v -52.430908 -81.176262 58.741211
v -51.275776 -80.893044 58.870068
v -52.537739 -80.530754 59.711510
v -49.425735 -80.444580 59.002590
v -47.676327 -80.785408 58.696674
v -46.684395 -80.862717 58.304100
v -57.154884 -79.211533 58.383873
v -55.647583 -79.828964 59.108326
v -50.411461 -79.481941 59.901772
v -50.033016 -79.876541 59.446621
v -47.918938 -80.023598 59.100613
v -46.775059 -79.922211 58.830486
v -45.786942 -79.898041 58.217613
v -55.653656 -79.176933 59.734039
v -57.354462 -78.485107 59.069397
v -47.437561 -79.269699 59.584728
v -46.606983 -79.150406 59.380920
v -45.744736 -79.034462 58.803154
v -46.085396 -78.213478 59.847149
v -58.487957 -77.822021 58.802689
v -45.603077 -78.172516 59.411724
v -44.918335 -78.126060 58.525402
v -45.405445 -77.440308 59.535301
v -44.645996 -77.024170 58.528656
v -45.381676 -76.483337 59.616833
v -59.308559 -76.682419 59.271126
v -44.911514 -75.799698 58.789124
v -60.682545 -75.337463 58.856541
v -45.378635 -74.759964 58.879112
v -45.830917 -75.284836 59.792759
v -61.161800 -73.641022 58.729340
v -46.261463 -74.015236 59.345058
v -60.728748 -72.482841 59.330135
v -46.675583 -73.001656 58.902042
v -60.732166 -71.532066 58.730900
v -60.226490 -69.750725 58.413925
v -59.439629 -70.386055 59.716900
v -49.634438 -70.230469 58.363071
v -49.851326 -70.819458 59.216312
v -48.465317 -71.990646 59.626877
v -52.230640 -69.249603 59.150066
v -50.916199 -70.494751 59.522705
v -50.839828 -69.586456 58.681320
v -59.253922 -68.958992 59.113087
v -54.833900 -68.177055 59.305923
v -53.390072 -69.015930 59.426632
v -53.183502 -68.288887 59.038864
v -53.640537 -69.462311 59.783924
v -52.420025 -68.141891 58.749508
v -51.385738 -68.854019 58.481247
v -58.632328 -68.066841 58.913963
v -58.156322 -67.161369 58.441093
v -57.629642 -67.841766 59.197796
v -57.062672 -67.198906 58.898167
v -56.675304 -67.913261 59.354580
v -55.906788 -67.394577 59.090614
v -54.702103 -67.241699 59.005337
v -51.734516 -67.897430 58.286831
v -57.372047 -66.306137 58.379093
v -56.350903 -66.488983 58.754696
v -53.899509 -66.194252 58.670483
v -53.009922 -66.384346 58.505791
v -52.120590 -66.888260 58.230446
v -56.910839 -65.016899 57.971519
v -56.503548 -65.638908 58.414143
v -55.207603 -65.785652 58.627911
v -55.293453 -64.983414 58.222347
v -53.721954 -65.344261 58.263641
v -54.486309 -80.005959 59.770447
v -48.867470 -79.126869 59.913284
v -57.159340 -77.850754 59.823460
v -58.274822 -77.280029 59.610023
v -56.500679 -78.332161 59.803246
v -59.604721 -76.029266 59.566933
v -60.214413 -75.033340 59.628933
v -60.740852 -74.428154 59.267338
v -60.675392 -73.525230 59.513847
v -47.173183 -73.393776 59.628986
v -46.912121 -74.201447 59.927788
v -60.450413 -72.651711 59.740093
v -48.414082 -72.587715 60.011875
v -49.320221 -71.791763 59.874603
v -52.343822 -71.077591 60.303967
v -50.833904 -71.125031 59.906242
v -58.491135 -68.841087 59.876907
v -55.929844 -68.966690 59.991013
v -57.650154 -68.878601 60.051888
v -53.544472 -79.931023 60.104961
v -52.409748 -80.013702 60.106895
v -54.371231 -79.173103 60.258770
v -53.324554 -79.150192 60.504955
v -52.497051 -79.116608 60.546822
v -55.346790 -78.296677 60.296448
v -53.929874 -78.248100 60.658718
v -52.351978 -78.124710 60.778862
v -50.328690 -78.639084 60.404358
v -47.297436 -78.408493 60.182922
v -57.454937 -77.043381 60.170559
v -56.279316 -77.449066 60.355156
v -55.245213 -77.303505 60.634251
v -54.176025 -77.449692 60.757591
v -50.619457 -77.690536 60.741631
v -49.052391 -77.631721 60.643738
v -47.104527 -77.697456 60.410324
v -58.354168 -76.187309 60.195553
v -57.041637 -76.207520 60.597130
v -55.478352 -76.259010 60.779709
v -54.053303 -76.616325 60.845726
v -52.151245 -76.737274 60.895279
v -50.194954 -76.338066 60.877605
v -48.883549 -76.708069 60.780022
v -47.764320 -76.802834 60.669430
v -47.048576 -76.443748 60.562878
v -46.122631 -77.007118 60.149734
v -59.276913 -75.195549 60.168159
v -58.240906 -75.201866 60.570896
v -57.218773 -75.422653 60.729111
v -54.624619 -75.208809 60.895721
v -52.191467 -75.071167 60.920769
v -49.053360 -75.813721 60.819092
v -47.833534 -75.918152 60.674915
v -46.267223 -76.024315 60.196007
v -60.008961 -74.182350 60.031971
v -58.960060 -74.117676 60.581066
v -57.191658 -74.511505 60.828617
v -53.655663 -74.070114 60.909122
v -50.021156 -74.844833 60.852680
v -48.807777 -74.922249 60.727196
v -48.009571 -75.130440 60.619961
v -46.990086 -75.125038 60.299595
v -60.115452 -73.146149 60.043144
v -59.346706 -73.358849 60.462704
v -58.585693 -73.081551 60.705784
v -57.662930 -73.100044 60.843357
v -56.636257 -73.082558 60.899475
v -55.158875 -73.683678 60.914677
v -52.349083 -73.673210 60.858002
v -50.064758 -73.882027 60.775742
v -48.985294 -74.137787 60.651432
v -47.915882 -74.096252 60.327484
v -59.494606 -71.986626 60.242016
v -55.060852 -72.739006 60.894379
v -52.978165 -72.824074 60.812420
v -51.719414 -72.800819 60.708515
v -50.073959 -73.173592 60.653004
v -48.886803 -73.155502 60.380917
v -58.553619 -71.497551 60.540726
v -57.339649 -71.476830 60.785244
v -55.162735 -71.815208 60.829109
v -53.476665 -71.946251 60.731216
v -51.914059 -71.780426 60.464561
v -50.071594 -72.291283 60.350475
v -58.364086 -69.633972 60.181377
v -57.521675 -70.111679 60.536716
v -56.967232 -70.257858 60.609592
v -55.756813 -70.802353 60.681622
v -54.208569 -71.122482 60.644337
v -56.508389 -69.505524 60.341274
v -54.340328 -70.137337 60.312439
f 1 2 3
f 1 4 5
f 2 1 5
f 6 7 8
f 6 9 10
f 7 6 10
f 3 10 9
f 3 9 1
f 1 9 11
f 4 1 12
f 12 1 11
f 13 4 12
f 13 14 4
f 15 8 16
f 8 15 6
f 6 15 17
f 9 6 17
f 11 9 17
f 18 14 13
f 18 13 19
f 20 16 21
f 16 20 15
f 15 20 22
f 17 15 23
f 23 15 22
f 11 17 24
f 24 17 23
f 12 11 25
f 25 11 24
f 13 12 26
f 26 12 25
f 19 13 26
f 27 18 19
f 28 20 21
f 29 28 21
f 22 20 28
f 25 24 30
f 26 25 31
f 31 25 30
f 19 26 32
f 32 26 31
f 27 19 33
f 33 19 32
f 27 33 34
f 22 28 35
f 35 28 36
f 23 22 37
f 37 22 35
f 24 23 38
f 38 23 37
f 30 24 38
f 33 32 39
f 39 32 31
f 34 33 40
f 40 33 39
f 34 40 41
f 42 43 44
f 42 45 46
f 43 42 46
f 29 46 45
f 29 45 28
f 28 45 36
f 30 38 47
f 48 30 47
f 31 30 48
f 39 31 49
f 49 31 48
f 40 39 50
f 50 39 49
f 51 41 40
f 52 44 53
f 44 52 42
f 42 52 54
f 45 42 54
f 36 45 55
f 55 45 54
f 56 36 55
f 35 36 56
f 37 35 57
f 57 35 56
f 38 37 57
f 47 38 57
f 49 48 58
f 50 49 58
f 40 50 59
f 59 51 40
f 60 53 61
f 53 60 52
f 52 60 62
f 54 52 63
f 63 52 62
f 64 54 63
f 55 54 64
f 56 55 65
f 65 55 64
f 57 56 66
f 66 56 65
f 47 57 67
f 67 57 66
f 48 47 68
f 68 47 67
f 58 48 68
f 50 58 69
f 59 50 69
f 70 51 59
f 71 60 61
f 72 71 61
f 62 60 71
f 64 63 73
f 65 64 73
f 58 68 74
f 69 58 74
f 59 69 75
f 75 70 59
f 76 71 72
f 77 76 72
f 62 71 78
f 78 71 76
f 63 62 79
f 79 62 78
f 73 63 79
f 80 73 81
f 65 73 80
f 66 65 82
f 82 65 80
f 67 66 83
f 83 66 82
f 68 67 84
f 84 67 83
f 85 68 84
f 74 68 85
f 69 74 86
f 86 74 85
f 87 88 75
f 87 75 86
f 86 75 69
f 70 75 88
f 76 89 90
f 76 90 78
f 79 78 91
f 91 78 90
f 73 79 92
f 92 79 91
f 81 73 92
f 83 82 93
f 94 83 93
f 84 83 94
f 85 84 95
f 95 84 94
f 96 85 95
f 97 98 86
f 97 86 96
f 96 86 85
f 87 86 98
f 90 89 99
f 99 100 90
f 90 100 91
f 92 91 101
f 101 91 100
f 80 81 102
f 102 81 92
f 82 80 103
f 103 80 102
f 93 82 103
f 104 93 103
f 94 93 105
f 105 93 104
f 106 94 105
f 107 108 95
f 107 95 106
f 106 95 94
f 96 95 108
f 97 96 108
f 99 109 100
f 102 92 110
f 110 92 101
f 103 102 111
f 111 102 110
f 112 103 111
f 104 103 112
f 105 104 113
f 113 104 112
f 114 107 106
f 114 106 113
f 113 106 105
f 109 115 100
f 100 115 101
f 110 101 116
f 116 101 115
f 117 110 116
f 111 110 118
f 118 110 117
f 112 111 119
f 119 111 118
f 120 121 113
f 120 113 119
f 119 113 112
f 114 113 121
f 115 109 122
f 122 123 115
f 115 123 116
f 117 116 123
f 118 117 124
f 125 126 119
f 125 119 124
f 124 119 118
f 120 119 126
f 122 127 123
f 123 127 117
f 128 125 124
f 128 124 127
f 127 124 117
f 5 129 2
f 2 129 130
f 4 131 5
f 5 131 129
f 131 4 14
f 132 131 14
f 10 133 7
f 7 133 134
f 2 10 3
f 133 10 2
f 132 14 135
f 16 8 136
f 136 8 7
f 14 137 135
f 18 137 14
f 16 136 138
f 21 16 138
f 18 27 137
f 139 138 140
f 139 29 138
f 29 21 138
f 27 141 137
f 141 27 34
f 139 142 143
f 140 142 139
f 141 34 41
f 44 144 145
f 44 43 144
f 144 43 143
f 143 46 139
f 143 43 46
f 29 139 46
f 146 41 51
f 44 145 53
f 146 51 147
f 53 145 148
f 53 148 61
f 61 148 149
f 51 70 147
f 147 70 150
f 61 149 72
f 149 77 72
f 88 151 70
f 70 151 150
f 76 77 152
f 152 89 76
f 153 89 152
f 87 98 154
f 87 154 88
f 151 88 154
f 155 99 89
f 155 89 153
f 97 108 156
f 97 156 98
f 107 114 157
f 107 157 108
f 156 108 157
f 99 155 158
f 109 99 158
f 121 159 160
f 120 159 121
f 114 121 160
f 157 114 160
f 122 158 161
f 122 109 158
f 125 162 126
f 159 120 126
f 162 159 126
f 122 161 163
f 122 163 127
f 128 164 125
f 164 162 125
f 127 163 165
f 127 165 128
f 128 165 166
f 166 164 128
f 2 130 133
f 167 129 168
f 167 130 129
f 131 168 129
f 131 132 169
f 131 169 168
f 132 135 170
f 133 171 134
f 134 171 172
f 173 170 135
f 134 136 7
f 137 173 135
f 173 137 174
f 138 136 175
f 141 174 137
f 140 175 142
f 175 140 138
f 141 176 174
f 142 177 178
f 141 41 176
f 179 178 180
f 179 145 144
f 179 144 178
f 178 143 142
f 178 144 143
f 41 146 181
f 179 180 182
f 179 182 148
f 179 148 145
f 148 183 149
f 182 183 148
f 149 183 184
f 185 149 184
f 186 149 185
f 187 186 185
f 149 186 77
f 150 151 188
f 186 187 152
f 152 77 186
f 154 189 151
f 151 189 188
f 98 156 190
f 98 190 154
f 191 189 154
f 190 191 154
f 155 153 192
f 157 193 156
f 156 193 194
f 156 194 190
f 195 158 155
f 195 155 196
f 196 155 192
f 157 160 197
f 157 197 193
f 161 158 195
f 159 162 198
f 159 198 199
f 159 199 160
f 197 160 199
f 161 195 200
f 161 200 163
f 162 164 201
f 198 162 201
f 202 198 201
f 165 200 203
f 165 163 200
f 204 165 203
f 204 166 165
f 204 203 205
f 130 206 207
f 130 167 206
f 206 167 208
f 168 209 167
f 167 209 208
f 209 168 169
f 130 207 171
f 130 171 133
f 132 170 169
f 207 172 171
f 170 173 210
f 134 211 136
f 210 173 174
f 211 175 136
f 142 175 212
f 174 176 213
f 174 213 210
f 212 177 142
f 176 41 181
f 176 181 214
f 215 178 177
f 181 146 216
f 183 182 217
f 146 147 216
f 216 147 218
f 219 184 217
f 184 183 217
f 147 150 218
f 218 150 220
f 185 219 221
f 222 185 221
f 219 185 184
f 150 188 220
f 152 187 223
f 223 153 152
f 153 223 224
f 153 224 192
f 194 193 225
f 190 194 191
f 194 225 191
f 192 226 196
f 193 197 227
f 197 199 227
f 195 196 228
f 198 202 199
f 199 202 227
f 200 195 228
f 229 230 201
f 230 202 201
f 231 203 200
f 166 232 164
f 204 232 166
f 201 164 232
f 201 232 229
f 204 205 233
f 232 204 233
f 234 232 233
f 169 235 236
f 169 236 209
f 169 170 235
f 235 170 237
f 134 172 238
f 170 210 237
f 238 211 134
f 210 239 237
f 175 211 212
f 210 213 239
f 213 214 240
f 176 214 213
f 241 215 242
f 242 215 177
f 243 242 177
f 212 243 177
f 244 245 181
f 245 214 181
f 241 246 247
f 215 241 247
f 215 247 180
f 215 180 178
f 244 216 248
f 181 216 244
f 247 246 249
f 247 249 217
f 247 217 182
f 180 247 182
f 248 218 250
f 216 218 248
f 217 249 219
f 218 220 250
f 220 188 251
f 187 185 222
f 251 188 252
f 188 189 252
f 189 191 252
f 252 191 253
f 192 254 226
f 192 224 254
f 255 191 225
f 255 253 191
f 193 227 256
f 193 256 225
f 257 227 202
f 229 258 230
f 202 230 257
f 228 259 231
f 231 200 228
f 231 260 203
f 229 234 258
f 232 234 229
f 261 260 262
f 205 260 261
f 205 203 260
f 263 205 261
f 263 264 205
f 264 233 205
f 233 264 234
f 265 236 235
f 172 207 266
f 267 265 237
f 265 235 237
f 172 268 238
f 268 172 266
f 238 212 211
f 239 213 240
f 239 240 269
f 269 240 270
f 242 243 271
f 240 214 245
f 270 240 245
f 242 271 241
f 241 271 272
f 245 273 270
f 244 273 245
f 273 244 274
f 249 275 276
f 219 249 276
f 275 249 246
f 244 248 274
f 274 248 277
f 278 276 279
f 278 221 276
f 221 219 276
f 248 250 277
f 221 278 222
f 250 220 277
f 277 220 280
f 281 278 282
f 283 281 282
f 222 281 187
f 278 281 222
f 220 251 280
f 280 251 284
f 285 281 283
f 286 285 283
f 187 287 223
f 187 281 287
f 281 285 287
f 223 287 224
f 288 285 286
f 287 285 289
f 289 285 288
f 224 287 290
f 287 289 290
f 224 290 254
f 252 253 291
f 288 292 293
f 288 293 289
f 290 289 294
f 294 289 293
f 290 294 254
f 255 295 253
f 253 295 291
f 292 296 293
f 293 296 294
f 225 256 297
f 255 225 297
f 292 298 296
f 254 294 299
f 299 294 296
f 226 299 196
f 254 299 226
f 257 300 227
f 300 256 227
f 297 256 301
f 298 302 296
f 296 302 299
f 196 259 228
f 196 299 259
f 299 302 259
f 230 303 304
f 258 303 230
f 257 230 305
f 230 304 305
f 300 257 305
f 259 302 306
f 231 259 306
f 260 306 262
f 260 231 306
f 264 263 307
f 307 308 264
f 308 234 264
f 308 258 234
f 309 262 310
f 261 262 309
f 261 309 263
f 207 206 311
f 208 312 206
f 206 312 311
f 209 313 208
f 208 313 312
f 236 314 209
f 209 314 313
f 314 236 265
f 315 314 265
f 311 266 207
f 265 267 315
f 316 267 237
f 238 268 317
f 317 268 318
f 316 237 269
f 238 319 320
f 317 319 238
f 239 269 237
f 238 320 212
f 269 270 321
f 320 271 243
f 212 320 243
f 273 322 270
f 323 322 273
f 241 272 324
f 246 241 324
f 273 274 323
f 324 275 246
f 274 277 325
f 275 279 276
f 325 277 326
f 278 279 282
f 279 327 282
f 277 280 326
f 326 280 328
f 282 327 283
f 327 329 283
f 280 284 328
f 283 329 286
f 329 330 286
f 251 252 331
f 251 331 284
f 252 291 331
f 288 286 332
f 332 292 288
f 292 332 333
f 255 297 334
f 334 295 255
f 333 298 292
f 256 300 335
f 256 335 301
f 336 302 298
f 337 305 304
f 300 305 338
f 305 337 338
f 300 338 335
f 302 336 339
f 306 302 339
f 303 340 341
f 258 340 303
f 304 303 341
f 342 262 306
f 340 258 308
f 343 340 308
f 342 310 262
f 307 263 344
f 307 344 308
f 309 310 345
f 263 309 346
f 346 309 345
f 344 263 346
f 347 313 348
f 347 312 313
f 348 314 349
f 348 313 314
f 266 350 318
f 268 266 318
f 267 351 315
f 351 267 316
f 318 352 317
f 353 320 319
f 271 354 355
f 354 271 320
f 321 270 322
f 356 321 322
f 272 355 357
f 271 355 272
f 272 357 358
f 324 272 358
f 323 274 359
f 360 275 324
f 360 324 361
f 361 324 358
f 274 325 359
f 360 362 363
f 361 362 360
f 275 360 279
f 364 360 363
f 279 364 327
f 360 364 279
f 326 328 365
f 366 327 364
f 329 327 366
f 367 329 366
f 328 284 368
f 330 329 367
f 369 330 367
f 284 331 368
f 368 331 370
f 330 369 371
f 332 330 371
f 332 286 330
f 291 295 372
f 370 331 291
f 372 370 291
f 332 371 333
f 333 373 298
f 297 301 334
f 298 373 336
f 337 304 374
f 338 337 375
f 337 374 375
f 301 335 376
f 339 336 377
f 341 378 379
f 340 378 341
f 342 306 339
f 378 340 343
f 342 339 380
f 342 380 310
f 308 344 343
f 345 381 382
f 345 380 381
f 345 310 380
f 383 345 382
f 383 346 345
f 348 384 347
f 384 348 349
f 312 385 311
f 385 312 347
f 314 386 349
f 386 314 315
f 387 386 315
f 388 318 350
f 388 350 389
f 350 266 311
f 315 351 387
f 390 351 316
f 319 317 352
f 319 352 391
f 391 352 388
f 318 388 352
f 316 269 321
f 392 316 321
f 353 354 320
f 321 356 392
f 355 393 357
f 393 355 354
f 322 323 356
f 358 357 394
f 323 359 395
f 356 323 395
f 394 361 358
f 325 326 359
f 359 326 396
f 363 397 364
f 326 365 396
f 364 397 366
f 397 398 366
f 365 328 399
f 366 398 367
f 398 400 367
f 328 368 399
f 399 368 401
f 367 400 369
f 400 402 369
f 368 370 401
f 401 370 403
f 295 404 372
f 403 370 372
f 371 369 405
f 406 405 407
f 333 405 406
f 333 371 405
f 334 404 295
f 373 333 406
f 334 376 408
f 334 301 376
f 404 334 408
f 304 409 374
f 375 374 410
f 335 338 411
f 338 375 411
f 376 335 412
f 335 411 412
f 377 373 413
f 336 373 377
f 409 304 341
f 379 409 341
f 377 380 339
f 378 414 379
f 415 380 377
f 378 416 417
f 378 343 416
f 343 344 416
f 381 415 418
f 381 380 415
f 346 383 416
f 416 344 346
f 381 418 419
f 382 381 419
f 382 419 420
f 420 383 382
f 347 384 421
f 422 311 385
f 421 385 347
f 422 389 350
f 311 422 350
f 351 390 387
f 319 391 423
f 353 319 423
f 390 424 425
f 316 424 390
f 424 316 392
f 353 426 354
f 357 393 427
f 392 356 428
f 357 427 394
f 356 395 428
f 394 429 430
f 361 394 430
f 431 395 359
f 362 432 433
f 363 362 433
f 430 362 361
f 432 362 430
f 359 396 431
f 363 433 397
f 433 434 397
f 396 365 435
f 397 434 398
f 434 436 398
f 365 399 435
f 435 399 437
f 398 436 400
f 399 401 437
f 437 401 438
f 401 403 438
f 438 403 439
f 402 440 369
f 372 404 441
f 372 441 403
f 403 441 439
f 369 440 442
f 405 369 442
f 442 407 405
f 441 404 443
f 376 444 408
f 373 406 413
f 374 445 446
f 409 445 374
f 374 446 410
f 411 375 447
f 375 410 447
f 411 447 412
f 444 376 412
f 379 448 449
f 445 409 379
f 449 445 379
f 450 377 413
f 448 379 414
f 377 450 415
f 414 378 417
f 383 451 416
f 451 417 416
f 451 383 420
f 421 384 452
f 452 384 453
f 453 384 349
f 422 454 455
f 389 422 455
f 422 456 454
f 385 456 422
f 421 456 385
f 349 457 453
f 386 457 349
f 457 386 387
f 458 457 387
f 389 459 388
f 459 389 455
f 390 458 387
f 425 458 390
f 423 391 460
f 353 423 426
f 461 425 424
f 424 462 461
f 392 462 424
f 427 393 463
f 392 428 462
f 462 428 464
f 464 428 465
f 395 465 428
f 465 395 431
f 433 432 466
f 431 396 467
f 433 466 434
f 396 435 467
f 467 435 468
f 435 437 468
f 436 469 400
f 437 438 468
f 400 469 402
f 469 470 402
f 440 471 472
f 440 470 471
f 440 402 470
f 440 472 473
f 442 473 407
f 442 440 473
f 407 474 406
f 408 444 475
f 443 404 408
f 475 443 408
f 413 406 474
f 445 449 476
f 445 476 446
f 410 446 477
f 410 477 478
f 410 478 447
f 412 447 479
f 479 444 412
f 413 474 480
f 448 481 449
f 413 480 450
f 448 482 481
f 414 482 448
f 482 414 417
f 483 415 450
f 415 483 418
f 484 417 451
f 418 483 485
f 418 485 419
f 419 485 486
f 420 419 487
f 419 486 487
f 487 451 420
f 454 488 455
f 456 489 454
f 454 489 488
f 456 490 489
f 452 456 421
f 490 456 452
f 453 457 491
f 457 492 491
f 492 457 458
f 388 459 493
f 494 492 458
f 458 425 494
f 391 495 460
f 493 391 388
f 495 391 493
f 425 496 494
f 496 425 461
f 393 354 497
f 497 354 426
f 463 393 497
f 394 427 429
f 429 427 463
f 429 498 430
f 465 431 499
f 432 500 466
f 500 432 430
f 431 467 499
f 466 501 434
f 434 501 436
f 501 502 436
f 467 468 503
f 436 502 469
f 502 504 469
f 468 438 503
f 469 504 470
f 438 439 503
f 503 439 505
f 504 471 470
f 506 471 504
f 439 441 505
f 505 441 507
f 508 473 472
f 507 441 443
f 509 507 443
f 473 508 510
f 407 473 510
f 510 474 407
f 444 511 475
f 509 443 475
f 476 512 513
f 449 512 476
f 446 476 514
f 476 513 514
f 477 446 514
f 479 447 515
f 447 478 515
f 511 444 479
f 515 511 479
f 474 510 516
f 516 480 474
f 517 512 481
f 481 512 449
f 480 516 518
f 481 482 517
f 482 519 517
f 520 450 480
f 482 521 519
f 417 521 482
f 450 520 522
f 483 522 523
f 483 450 522
f 451 524 484
f 521 417 484
f 483 523 485
f 485 525 486
f 487 486 526
f 524 451 487
f 526 524 487
f 527 455 488
f 489 528 488
f 490 529 489
f 489 529 528
f 452 530 490
f 530 529 490
f 453 530 452
f 453 491 530
f 493 531 495
f 493 459 531
f 531 459 527
f 455 527 459
f 532 492 494
f 460 533 534
f 423 460 534
f 533 460 495
f 496 532 494
f 534 535 536
f 534 536 426
f 423 534 426
f 536 535 537
f 536 537 497
f 426 536 497
f 538 461 462
f 463 537 539
f 497 537 463
f 462 464 538
f 429 539 540
f 539 429 463
f 464 465 541
f 430 498 542
f 540 498 429
f 465 499 541
f 541 499 543
f 466 500 544
f 542 500 430
f 466 544 501
f 499 467 543
f 467 503 545
f 545 503 546
f 502 506 504
f 503 505 546
f 546 505 547
f 506 548 549
f 471 506 549
f 505 507 547
f 471 549 550
f 472 471 550
f 550 508 472
f 551 508 550
f 509 552 507
f 553 510 508
f 553 508 554
f 554 508 551
f 513 555 556
f 556 557 513
f 511 515 558
f 511 558 475
f 558 552 475
f 552 509 475
f 513 512 555
f 512 559 555
f 557 514 513
f 557 560 561
f 557 561 514
f 514 561 477
f 477 561 478
f 510 553 516
f 516 553 562
f 559 512 517
f 518 516 562
f 520 518 563
f 480 518 520
f 520 563 564
f 520 564 522
f 564 523 522
f 485 523 565
f 525 485 566
f 485 565 566
f 486 525 567
f 525 566 567
f 486 567 526
f 488 568 569
f 527 488 569
f 488 528 568
f 529 570 528
f 530 571 529
f 529 571 570
f 530 491 571
f 572 491 492
f 531 573 574
f 495 531 574
f 527 573 531
f 573 527 569
f 574 533 495
f 533 535 534
f 575 535 533
f 496 576 577
f 576 496 461
f 461 578 576
f 578 461 538
f 537 579 539
f 538 464 580
f 464 541 580
f 541 543 581
f 545 543 467
f 545 582 543
f 582 581 543
f 501 583 502
f 584 582 545
f 545 546 584
f 502 583 506
f 583 585 506
f 546 547 586
f 584 546 586
f 585 548 506
f 587 586 547
f 588 551 550
f 507 587 547
f 507 552 587
f 552 589 587
f 551 588 554
f 588 590 554
f 555 591 556
f 556 592 557
f 592 560 557
f 558 593 594
f 515 593 558
f 558 589 552
f 554 590 595
f 553 554 595
f 555 559 591
f 591 559 596
f 561 560 597
f 478 561 598
f 561 597 598
f 593 515 478
f 598 593 478
f 553 595 599
f 562 553 599
f 559 600 596
f 517 600 559
f 599 601 562
f 517 519 600
f 600 519 602
f 562 601 563
f 518 562 563
f 484 603 604
f 484 604 521
f 604 602 521
f 602 519 521
f 564 563 605
f 605 523 564
f 606 523 605
f 484 607 603
f 484 524 607
f 523 606 565
f 608 607 526
f 608 526 567
f 524 526 607
f 568 609 569
f 528 610 568
f 568 610 609
f 528 611 610
f 528 570 611
f 571 612 570
f 491 613 571
f 571 613 612
f 613 491 572
f 614 613 572
f 573 615 616
f 574 573 616
f 573 617 615
f 617 573 569
f 532 572 492
f 532 618 572
f 618 614 572
f 619 574 616
f 574 575 533
f 496 577 532
f 620 535 575
f 537 535 620
f 620 579 537
f 621 578 538
f 621 538 580
f 498 540 622
f 540 539 579
f 498 622 542
f 622 623 542
f 623 500 542
f 581 582 624
f 624 582 625
f 582 584 625
f 625 584 626
f 584 586 626
f 626 586 627
f 548 628 549
f 548 585 628
f 585 629 628
f 586 587 627
f 627 587 630
f 549 588 550
f 549 628 588
f 628 631 588
f 632 592 556
f 632 633 592
f 592 634 560
f 592 633 634
f 635 630 589
f 589 630 587
f 588 631 590
f 631 636 590
f 632 591 637
f 632 556 591
f 634 597 560
f 635 558 638
f 638 558 594
f 589 558 635
f 590 636 639
f 595 590 639
f 640 595 639
f 596 641 591
f 642 641 596
f 594 593 598
f 597 594 598
f 595 640 643
f 599 595 643
f 596 600 642
f 599 643 601
f 643 644 601
f 563 601 644
f 645 563 644
f 605 563 645
f 605 645 646
f 646 606 605
f 607 608 647
f 647 603 607
f 566 565 648
f 565 606 648
f 567 566 649
f 566 648 649
f 649 608 567
f 570 650 611
f 570 612 650
f 617 651 615
f 609 617 569
f 609 652 617
f 652 651 617
f 610 652 609
f 653 619 616
f 532 654 618
f 654 532 577
f 619 575 574
f 655 654 577
f 656 620 575
f 655 577 657
f 657 577 576
f 620 656 579
f 578 657 576
f 579 658 659
f 656 658 579
f 621 660 578
f 660 657 578
f 622 659 661
f 659 540 579
f 659 622 540
f 621 662 660
f 662 621 580
f 662 580 581
f 581 580 541
f 622 661 623
f 500 663 544
f 500 623 663
f 663 664 544
f 544 664 501
f 665 666 625
f 501 664 583
f 667 666 665
f 625 626 665
f 583 668 585
f 665 626 667
f 585 668 629
f 669 670 667
f 671 670 669
f 626 627 667
f 627 669 667
f 629 672 628
f 633 673 674
f 675 673 633
f 674 676 677
f 673 676 674
f 677 678 679
f 676 678 677
f 671 679 678
f 671 669 679
f 669 680 679
f 627 630 669
f 630 680 669
f 628 672 631
f 672 681 631
f 637 641 682
f 683 637 682
f 675 637 683
f 675 632 637
f 633 632 675
f 674 634 633
f 634 674 684
f 684 674 677
f 679 685 677
f 685 684 677
f 680 685 679
f 635 680 630
f 681 636 631
f 591 641 637
f 634 684 597
f 638 594 685
f 638 685 680
f 635 638 680
f 639 686 640
f 639 636 686
f 685 597 684
f 594 597 685
f 640 687 688
f 640 688 643
f 689 643 688
f 642 600 690
f 690 600 691
f 689 644 643
f 689 692 644
f 691 600 602
f 644 692 645
f 606 693 648
f 606 646 693
f 648 694 649
f 693 694 648
f 694 695 649
f 695 647 608
f 608 649 695
f 611 696 610
f 696 611 650
f 613 697 612
f 697 613 614
f 698 697 614
f 652 699 651
f 610 696 652
f 652 696 699
f 614 618 698
f 698 618 700
f 619 653 701
f 615 653 616
f 615 702 653
f 651 702 615
f 654 700 618
f 575 619 656
f 656 619 703
f 656 704 658
f 704 656 703
f 657 705 655
f 660 705 657
f 659 658 706
f 659 707 661
f 707 659 706
f 660 662 708
f 709 662 581
f 581 624 709
f 709 624 710
f 624 625 710
f 710 625 666
f 664 668 583
f 668 711 629
f 711 712 629
f 671 678 713
f 671 713 714
f 671 714 670
f 629 712 672
f 712 715 672
f 673 675 716
f 673 716 676
f 715 681 672
f 641 717 682
f 636 681 686
f 681 718 686
f 641 642 717
f 640 686 718
f 718 687 640
f 642 690 717
f 688 687 719
f 719 689 688
f 602 720 691
f 603 721 604
f 720 602 604
f 721 720 604
f 645 692 722
f 646 645 722
f 646 722 693
f 694 693 723
f 695 694 724
f 694 723 724
f 647 695 725
f 695 724 725
f 721 603 647
f 725 721 647
f 696 650 726
f 612 727 650
f 650 727 726
f 697 728 727
f 697 727 612
f 729 699 730
f 730 699 696
f 730 696 726
f 697 731 728
f 731 697 698
f 731 698 732
f 732 698 700
f 653 733 734
f 701 653 734
f 653 702 733
f 699 702 651
f 699 729 702
f 735 732 700
f 654 655 735
f 700 654 735
f 703 619 701
f 655 736 737
f 655 737 735
f 703 738 704
f 655 705 736
f 658 704 706
f 739 705 660
f 739 660 740
f 740 660 708
f 706 741 707
f 709 708 662
f 709 742 708
f 742 740 708
f 707 743 744
f 707 744 661
f 661 744 623
f 741 743 707
f 745 742 709
f 709 710 745
f 746 663 744
f 663 623 744
f 745 710 747
f 663 746 664
f 664 746 748
f 747 666 749
f 710 666 747
f 664 748 668
f 748 711 668
f 750 751 752
f 749 750 752
f 749 713 750
f 666 714 749
f 714 713 749
f 667 670 714
f 666 667 714
f 753 754 751
f 751 750 753
f 750 755 753
f 713 678 755
f 713 755 750
f 756 715 712
f 675 683 757
f 683 758 757
f 754 753 716
f 754 716 757
f 757 716 675
f 676 716 753
f 755 676 753
f 678 676 755
f 715 759 681
f 717 760 682
f 760 761 682
f 758 683 682
f 761 758 682
f 759 718 681
f 718 762 687
f 719 687 763
f 764 765 690
f 766 765 764
f 690 691 764
f 767 768 766
f 764 767 766
f 764 720 767
f 764 691 720
f 689 719 769
f 692 689 769
f 722 692 769
f 770 725 771
f 768 770 771
f 767 770 768
f 767 721 770
f 720 721 767
f 693 722 772
f 693 772 723
f 721 725 770
f 730 773 774
f 729 730 774
f 726 775 730
f 775 773 730
f 727 775 726
f 728 775 727
f 702 776 733
f 702 729 776
f 732 735 737
f 734 777 778
f 701 734 778
f 777 734 733
f 778 703 701
f 704 738 779
f 778 738 703
f 779 738 778
f 736 705 739
f 704 779 741
f 706 704 741
f 780 736 739
f 739 781 780
f 781 739 740
f 781 740 742
f 744 743 782
f 745 783 784
f 745 784 742
f 744 782 785
f 746 744 785
f 747 783 745
f 747 786 783
f 785 787 748
f 785 748 746
f 786 747 749
f 788 786 749
f 787 712 711
f 748 787 711
f 788 749 752
f 789 712 787
f 756 712 789
f 752 751 790
f 754 790 751
f 756 759 715
f 761 791 758
f 754 757 791
f 791 757 758
f 717 792 760
f 718 759 762
f 759 793 762
f 717 690 792
f 792 690 765
f 762 763 687
f 794 719 763
f 719 794 769
f 722 795 772
f 769 795 722
f 769 794 795
f 772 796 797
f 795 796 772
f 797 798 799
f 796 798 797
f 798 800 799
f 799 771 725
f 799 800 771
f 800 801 771
f 801 768 771
f 723 772 797
f 799 723 797
f 724 723 799
f 725 724 799
f 802 773 803
f 803 773 775
f 728 804 775
f 775 804 803
f 731 805 728
f 728 805 804
f 805 731 732
f 776 729 806
f 729 774 807
f 806 729 807
f 774 808 807
f 774 809 808
f 774 773 809
f 802 809 773
f 732 737 805
f 805 737 810
f 733 811 777
f 811 812 777
f 776 811 733
f 806 811 776
f 808 813 807
f 814 778 777
f 737 815 810
f 815 737 736
f 779 814 816
f 814 779 778
f 817 815 736
f 741 779 818
f 818 779 816
f 736 780 817
f 819 741 818
f 781 784 780
f 782 743 820
f 819 743 741
f 820 743 819
f 742 784 781
f 782 821 785
f 821 782 820
f 785 789 787
f 752 822 788
f 823 824 790
f 790 824 822
f 790 822 752
f 789 825 756
f 790 791 823
f 790 754 791
f 825 759 756
f 760 826 827
f 792 826 760
f 827 761 760
f 792 765 826
f 826 765 828
f 762 829 763
f 762 793 829
f 829 830 763
f 831 828 766
f 766 828 765
f 763 830 794
f 831 768 832
f 831 766 768
f 796 795 833
f 798 796 833
f 800 798 834
f 798 833 834
f 834 801 800
f 768 801 832
f 803 835 802
f 803 804 836
f 835 803 836
f 804 805 836
f 809 837 808
f 809 802 838
f 837 809 838
f 802 835 838
f 838 835 839
f 836 840 835
f 840 839 835
f 841 840 836
f 805 810 841
f 836 805 841
f 812 814 777
f 842 812 811
f 842 811 843
f 843 811 806
f 807 844 806
f 806 844 843
f 845 846 844
f 845 844 813
f 813 844 807
f 813 808 837
f 813 837 845
f 838 847 837
f 839 847 838
f 840 848 839
f 841 849 840
f 849 848 840
f 841 810 849
f 850 814 851
f 851 812 842
f 851 814 812
f 845 852 846
f 852 845 853
f 845 837 853
f 848 854 839
f 854 847 839
f 849 855 848
f 855 854 848
f 810 815 856
f 810 856 849
f 849 856 855
f 814 850 816
f 857 858 851
f 858 850 851
f 847 853 837
f 854 853 847
f 855 859 854
f 860 859 855
f 860 861 862
f 860 855 861
f 855 856 861
f 815 817 856
f 856 817 861
f 816 863 818
f 816 858 863
f 816 850 858
f 861 864 862
f 864 865 866
f 864 861 865
f 861 817 865
f 817 780 865
f 818 863 819
f 867 866 865
f 868 866 867
f 780 784 867
f 865 780 867
f 819 869 820
f 870 868 867
f 784 783 870
f 867 784 870
f 820 871 821
f 870 872 873
f 870 786 872
f 870 783 786
f 821 874 785
f 873 872 875
f 872 788 875
f 786 788 872
f 785 874 789
f 874 876 789
f 822 877 788
f 788 877 875
f 878 825 876
f 876 825 789
f 822 824 877
f 878 879 825
f 880 878 876
f 880 879 878
f 881 823 791
f 881 882 823
f 882 883 823
f 825 879 759
f 884 885 886
f 882 886 885
f 881 886 882
f 881 827 886
f 881 761 827
f 791 761 881
f 759 879 793
f 887 879 880
f 793 879 887
f 888 889 890
f 891 889 888
f 889 884 890
f 884 892 890
f 886 893 884
f 893 892 884
f 827 826 893
f 827 893 886
f 829 894 895
f 793 894 829
f 793 887 894
f 895 896 897
f 894 896 895
f 897 898 899
f 896 898 897
f 888 899 898
f 888 900 899
f 890 900 888
f 893 901 892
f 826 828 901
f 893 826 901
f 830 829 895
f 830 895 902
f 902 895 897
f 899 903 897
f 903 902 897
f 890 904 900
f 892 905 890
f 905 904 890
f 901 906 892
f 906 905 892
f 901 828 906
f 902 907 830
f 903 908 902
f 908 907 902
f 899 909 903
f 909 908 903
f 900 909 899
f 904 909 900
f 831 905 906
f 828 831 906
f 830 907 794
f 795 794 907
f 909 910 908
f 910 907 908
f 904 911 909
f 911 910 909
f 832 801 911
f 832 911 905
f 905 911 904
f 831 832 905
f 833 795 907
f 910 833 907
f 834 833 910
f 911 834 910
f 801 834 911
f 844 846 843
f 851 842 912
f 912 857 851
f 853 913 852
f 854 913 853
f 854 859 913
f 858 914 915
f 863 858 915
f 857 916 858
f 858 916 914
f 863 915 869
f 819 863 869
f 820 869 917
f 868 870 873
f 871 918 919
f 821 871 919
f 917 871 820
f 918 871 917
f 821 919 874
f 919 920 874
f 875 921 922
f 877 921 875
f 922 873 875
f 923 876 920
f 920 876 874
f 883 924 921
f 883 921 824
f 824 921 877
f 883 925 924
f 824 823 883
f 876 923 880
f 885 891 926
f 926 927 885
f 885 927 882
f 927 925 882
f 925 883 882
f 889 891 884
f 891 885 884
f 880 928 887
f 891 888 929
f 894 887 928
f 896 894 928
f 898 896 930
f 896 928 930
f 929 888 898
f 930 929 898
f 843 931 842
f 843 846 932
f 931 843 932
f 912 842 931
f 912 931 933
f 933 931 934
f 932 935 931
f 935 934 931
f 846 852 932
f 857 912 933
f 857 933 936
f 936 933 937
f 934 937 933
f 935 938 934
f 938 937 934
f 852 939 932
f 932 939 935
f 852 913 939
f 939 913 940
f 913 859 940
f 859 860 940
f 860 862 940
f 914 941 915
f 914 916 942
f 941 914 942
f 916 857 936
f 916 936 942
f 942 936 943
f 937 944 936
f 944 943 936
f 938 944 937
f 939 945 935
f 945 938 935
f 946 945 939
f 940 946 939
f 947 946 940
f 940 862 947
f 864 866 862
f 915 948 869
f 915 941 948
f 948 941 949
f 942 949 941
f 943 950 942
f 950 949 942
f 944 951 943
f 951 950 943
f 938 952 944
f 952 951 944
f 945 953 938
f 953 952 938
f 946 954 945
f 954 953 945
f 947 955 946
f 955 954 946
f 956 955 947
f 862 957 947
f 957 956 947
f 866 868 957
f 862 866 957
f 917 869 948
f 917 948 958
f 958 948 959
f 949 960 948
f 960 959 948
f 950 960 949
f 951 961 950
f 952 962 951
f 962 961 951
f 953 962 952
f 954 963 953
f 955 964 954
f 964 963 954
f 956 964 955
f 957 965 956
f 868 873 965
f 957 868 965
f 918 966 919
f 918 917 958
f 918 958 966
f 966 958 967
f 959 967 958
f 960 968 959
f 968 967 959
f 950 961 960
f 961 968 960
f 962 969 961
f 953 970 962
f 963 970 953
f 971 970 963
f 964 972 963
f 972 971 963
f 956 973 964
f 973 972 964
f 873 973 965
f 965 973 956
f 966 974 920
f 919 966 920
f 967 975 966
f 975 974 966
f 976 975 967
f 968 977 967
f 977 976 967
f 978 977 968
f 961 979 968
f 979 978 968
f 969 979 961
f 962 980 969
f 970 981 962
f 981 980 962
f 971 982 970
f 982 981 970
f 972 983 971
f 983 982 971
f 922 921 983
f 922 983 973
f 973 983 972
f 873 922 973
f 920 974 923
f 923 974 984
f 984 974 975
f 976 984 975
f 979 985 978
f 969 986 979
f 986 985 979
f 980 986 969
f 987 986 980
f 981 988 980
f 988 987 980
f 982 989 981
f 989 988 981
f 924 989 983
f 983 989 982
f 921 924 983
f 976 990 984
f 977 991 976
f 991 990 976
f 978 991 977
f 985 992 978
f 992 991 978
f 986 993 985
f 993 992 985
f 987 994 986
f 994 993 986
f 988 995 987
f 995 994 987
f 924 925 995
f 924 995 989
f 989 995 988
f 923 984 880
f 880 984 996
f 996 984 990
f 991 997 990
f 997 996 990
f 998 997 991
f 992 999 991
f 999 998 991
f 1000 999 992
f 993 1000 992
f 926 1000 993
f 994 926 993
f 927 926 994
f 995 927 994
f 925 927 995
f 999 1001 998
f 1000 1002 999
f 1002 1001 999
f 891 1002 926
f 926 1002 1000
f 880 996 928
f 997 930 996
f 930 928 996
f 998 1001 997
f 1001 930 997
f 1002 929 1001
f 891 929 1002
f 929 930 1001
